<svg xmlns="http://www.w3.org/2000/svg" xmlns:xlink="http://www.w3.org/1999/xlink" version="1.1" x="0px" y="0px" viewBox="0 0 100 125" enable-background="new 0 0 100 100" xml:space="preserve"><path d="M81.454,34.598L81.454,34.598L81.454,34.598h-7.237c-0.557,0-0.928,0-1.299,0.186v-5.567c0-2.598-2.041-4.639-4.639-4.639  H25.041c-2.598,0-4.639,2.041-4.639,4.639V64.66c0,2.598,2.041,4.639,4.639,4.639h4.268c-0.186-0.557-0.186-1.299-0.186-1.856  c0-0.186,0-0.557,0-0.742h-4.082c-1.113,0-1.856-0.928-1.856-1.856V29.216c0-1.113,0.928-1.856,1.856-1.856h43.423  c1.113,0,1.856,0.928,1.856,1.856v9.464v25.98c0,1.113-0.928,1.856-1.856,1.856H45.082c0,0.186,0,0.557,0,0.742  c0,0.742,0,1.299-0.186,1.856h23.567c1.299,0,2.412-0.557,3.34-1.485c0.742,0.557,1.67,0.928,2.598,0.928  c0-0.557-0.186-0.928-0.186-1.485c0-0.371,0-0.742,0-1.299c-0.742,0-1.299-0.557-1.299-1.299v-0.186V38.309  c0-0.742,0.557-1.299,1.299-1.299h5.753v10.763c0,2.041,1.67,3.897,3.897,3.897h8.351v12.619c0,0.742-0.557,1.299-1.299,1.299H90.36  c0,0.371,0,0.742,0,1.299s0,0.928-0.186,1.485h0.742c2.227,0,4.082-1.856,4.082-4.082V50.186v-2.598  C95,40.722,88.876,34.598,81.454,34.598z M83.866,49.258c-0.557,0-1.113-0.557-1.113-1.113V37.381  c5.381,0.742,9.464,5.196,9.464,10.763v1.113C92.216,49.258,83.866,49.258,83.866,49.258z"/><path d="M28.938,41.464H10.381c-0.742,0-1.299,0.557-1.299,1.299s0.557,1.299,1.299,1.299h18.557c0.742,0,1.299-0.557,1.299-1.299  S29.68,41.464,28.938,41.464z"/><path d="M26.155,34.412c0-0.742-0.557-1.299-1.299-1.299H6.299C5.557,33.113,5,33.67,5,34.412s0.557,1.299,1.299,1.299h18.557  C25.598,35.711,26.155,35.155,26.155,34.412z"/><path d="M45.082,66.515c-0.371-4.082-3.897-7.237-7.979-7.237s-7.608,3.155-7.979,7.237c0,0.186,0,0.557,0,0.742  c0,0.742,0,1.299,0.186,1.856c0.928,3.526,4.082,6.124,7.794,6.124c3.711,0,7.052-2.598,7.794-6.124  c0.186-0.557,0.186-1.299,0.186-1.856C45.268,67.072,45.082,66.701,45.082,66.515z M42.485,67.258c0,0.742-0.186,1.299-0.371,1.856  c-0.742,2.041-2.784,3.526-5.01,3.526s-4.268-1.485-5.01-3.526c-0.186-0.557-0.371-1.299-0.371-1.856c0-0.186,0-0.557,0-0.742  c0.371-2.598,2.598-4.639,5.381-4.639s5.01,2.041,5.381,4.639C42.485,66.701,42.485,67.072,42.485,67.258z"/><circle cx="37.103" cy="67.258" r="2.784"/><path d="M90.175,65.959c-0.557-3.897-3.897-6.866-7.979-6.866s-7.423,2.969-7.979,6.866c0,0.371,0,0.742,0,1.299  c0,0.557,0,0.928,0.186,1.485c0.742,3.711,4.082,6.68,7.979,6.68s7.237-2.784,7.979-6.68c0-0.557,0.186-0.928,0.186-1.485  C90.361,66.887,90.361,66.515,90.175,65.959z M87.392,68.742c-0.557,2.227-2.598,3.897-5.196,3.897c-2.412,0-4.454-1.67-5.196-3.897  c-0.186-0.557-0.186-0.928-0.186-1.485c0-0.371,0-0.742,0.186-1.299c0.557-2.412,2.784-4.268,5.196-4.268s4.639,1.856,5.196,4.268  c0,0.371,0.186,0.742,0.186,1.299C87.577,67.814,87.577,68.186,87.392,68.742z"/><circle cx="82.196" cy="67.258" r="2.784"/><text x="0" y="115" fill="#000000" font-size="5px" font-weight="bold" font-family="'Helvetica Neue', Helvetica, Arial-Unicode, Arial, Sans-serif">Created by Manuel Zlatko Villar Pavic</text><text x="0" y="120" fill="#000000" font-size="5px" font-weight="bold" font-family="'Helvetica Neue', Helvetica, Arial-Unicode, Arial, Sans-serif">from the Noun Project</text></svg>